<svg xmlns="http://www.w3.org/2000/svg" xmlns:xlink="http://www.w3.org/1999/xlink" width="500" zoomAndPan="magnify" viewBox="0 0 375 374.999991" height="500" preserveAspectRatio="xMidYMid meet" version="1.0"><defs><clipPath id="6cf8a56314"><path d="M 101.429688 120.207031 L 273.929688 120.207031 L 273.929688 254.457031 L 101.429688 254.457031 Z M 101.429688 120.207031 " clip-rule="nonzero"/></clipPath><clipPath id="62c631049c"><path d="M 102 121 L 273.929688 121 L 273.929688 254 L 102 254 Z M 102 121 " clip-rule="nonzero"/></clipPath></defs><g clip-path="url(#6cf8a56314)"><path stroke-linecap="butt" transform="matrix(0.131529, 0, 0, 0.130932, 58.523794, 57.271645)" fill="none" stroke-linejoin="miter" d="M 652.094398 968.313799 L 851.522011 809.625473 C 852.353578 808.96912 853.600929 809.028789 854.3434 809.774645 C 881.63662 836.47629 914.364726 853.451973 952.587114 860.731527 C 953.121693 860.82103 953.537477 861.298378 953.537477 861.895063 L 953.537477 1126.256268 C 953.537477 1127.688311 952.43862 1128.911515 950.983378 1129.060686 C 938.806859 1130.164553 927.16492 1133.058474 916.057559 1137.682782 C 866.579316 1158.35791 832.128678 1193.53248 812.735345 1243.295993 C 804.746361 1263.762282 800.73702 1287.928017 800.707321 1315.763363 C 800.677622 1357.650637 812.557152 1393.720233 836.316213 1424.031822 C 868.984921 1465.650587 915.285389 1492.083724 967.852311 1495.126817 C 1034.793463 1499.005268 1089.201711 1475.197544 1131.077055 1423.733479 C 1182.159035 1360.902569 1180.198913 1267.282722 1133.096575 1203.139105 C 1104.259016 1163.907079 1060.215658 1134.460684 1011.86597 1128.643007 C 1008.866389 1128.255162 1006.609278 1125.689417 1006.609278 1122.676159 L 1006.609278 864.729316 C 1006.609278 862.909427 1007.975424 861.328212 1009.816751 861.089538 C 1045.930523 856.286226 1086.617914 838.654189 1111.505529 811.027683 C 1112.455892 809.983484 1114.119026 809.893982 1115.188184 810.818843 L 1296.58861 968.641975 C 1296.648007 968.701644 1296.707405 968.761312 1296.796501 968.820981 L 1303.270845 973.117111 C 1303.300544 973.146945 1303.330243 973.17678 1303.389641 973.206614 C 1305.290365 974.549155 1305.735848 977.234236 1304.399401 979.143628 C 1304.369702 979.173462 1304.340003 979.203296 1304.310304 979.233131 C 1273.512622 1020.225377 1264.95936 1071.450768 1273.839309 1120.736933 C 1287.589865 1196.903749 1357.174214 1257.765599 1433.915979 1263.553442 C 1488.056937 1267.640733 1539.614098 1250.336874 1578.25227 1212.268383 C 1606.169166 1184.761213 1623.067798 1152.301559 1628.918466 1114.919256 C 1634.412749 1079.834189 1631.264674 1047.076193 1619.503939 1016.5856 C 1599.041448 963.719325 1549.652301 920.698351 1493.491822 907.601119 C 1439.499358 894.951401 1390.13991 906.616589 1344.017634 937.077349 C 1343.007874 937.763536 1341.671427 937.674034 1340.750763 936.898343 C 1300.954337 903.066315 1254.08959 862.760256 1200.097126 815.980167 C 1180.822588 799.302826 1164.666427 783.252005 1145.837372 771.049801 C 1144.441527 770.154773 1144.025743 768.30505 1144.887009 766.902841 C 1155.192502 750.374672 1162.142027 732.474128 1165.765283 713.201208 C 1180.941383 632.768096 1145.86707 559.34603 1077.322181 517.637762 C 1022.498149 484.312915 950.389401 485.864296 895.179285 517.995773 C 863.163951 536.612339 838.751516 562.568128 821.941981 595.833306 C 801.420093 636.497376 796.994968 680.085201 808.636907 726.596782 C 812.11167 740.469704 817.041675 752.373566 823.397224 762.278534 C 824.317887 763.710577 824.020899 765.619969 822.684452 766.664167 L 614.703577 932.124865 C 613.040443 933.467406 610.694236 933.527074 608.942005 932.274036 C 593.201627 920.877356 574.93685 912.732609 554.20707 907.75029 C 474.28753 888.596708 392.437567 925.173487 352.581743 996.566824 C 334.851545 1028.370125 329.476057 1062.858507 331.287686 1099.46512 C 334.584255 1166.950172 379.280988 1224.858432 441.321834 1250.038531 C 499.234544 1273.45841 567.512143 1267.223054 618.267436 1228.826386 C 676.744423 1184.612042 701.780533 1119.931409 687.643892 1047.076193 C 682.179308 1018.972339 670.240381 993.553566 651.79741 970.819875 C 651.559819 970.521532 651.411325 970.103853 651.411325 969.716008 C 651.411325 969.178991 651.678615 968.671809 652.094398 968.313799 " stroke="#828082" stroke-width="6.47" stroke-opacity="1" stroke-miterlimit="4"/><path stroke-linecap="butt" transform="matrix(0.131529, 0, 0, 0.130932, 58.523794, 57.271645)" fill="none" stroke-linejoin="miter" d="M 1001.976261 858.046446 C 1005.03524 855.600038 1008.599099 853.988989 1012.697537 853.213299 C 1046.108716 846.858606 1076.431216 832.388999 1103.635341 809.864147 C 1109.248419 805.210006 1113.495351 802.28625 1120.236984 806.045365 C 1128.730848 810.789009 1138.115677 818.307237 1148.391471 828.60005 C 1160.894676 841.100597 1173.754267 852.58678 1186.910847 863.028764 C 1199.621944 873.082903 1208.917677 883.19671 1222.905824 895.070738 C 1235.64662 905.870733 1249.54567 917.834264 1264.543577 930.931495 C 1276.037022 941.015468 1284.798176 947.907178 1290.797339 951.666292 C 1295.697645 954.709385 1299.469396 957.603306 1302.023495 960.288388 C 1306.9535 965.479546 1310.22037 968.999986 1311.764709 970.849709 C 1314.5267 974.131475 1314.734592 978.904954 1312.239891 982.39556 C 1308.527537 987.616552 1302.587772 997.670691 1294.420595 1012.587811 C 1289.223301 1022.015431 1285.481249 1030.935869 1283.16474 1039.319291 C 1278.531724 1056.026465 1276.215215 1065.424251 1276.215215 1067.512648 C 1276.244914 1099.166777 1277.581361 1131.805436 1296.380718 1158.417579 C 1297.09349 1159.372274 1297.687466 1160.386639 1298.162647 1161.460671 C 1304.696389 1175.124753 1311.616215 1185.715909 1318.951825 1193.144635 C 1331.959911 1206.361203 1337.869977 1214.71479 1351.94722 1225.425283 C 1355.98626 1228.468375 1361.361748 1231.720308 1368.103381 1235.210914 C 1385.209905 1244.012015 1395.515397 1249.710355 1411.523064 1252.037425 C 1429.312661 1254.633004 1446.092497 1257.795434 1464.862155 1255.408694 C 1465.604625 1255.289358 1472.732343 1254.39433 1486.21561 1252.693779 C 1494.620378 1251.589912 1502.104482 1249.799857 1508.72732 1247.234113 C 1550.780857 1230.944617 1592.151321 1198.932477 1608.84206 1156.448519 C 1617.900202 1133.476154 1625.651596 1109.608761 1624.582438 1085.11485 C 1623.364786 1057.637514 1617.128033 1030.637527 1605.842479 1004.085053 C 1599.843316 989.943623 1590.963368 977.47291 1579.232331 966.732584 C 1569.936599 958.229825 1554.255619 943.103865 1540.029882 935.108289 C 1526.873302 927.739231 1512.825758 921.474041 1497.916947 916.342552 C 1496.758693 915.954706 1495.511343 915.745867 1494.293691 915.686198 L 1485.621634 915.537027 C 1485.384043 915.537027 1485.116754 915.477359 1484.879163 915.387856 C 1475.613129 912.255261 1469.435774 911.002223 1466.347096 911.569073 C 1463.377213 912.165758 1458.566004 912.314929 1451.913467 912.046421 C 1437.895621 911.509405 1420.610905 912.702774 1405.909986 917.476253 C 1393.763166 921.414372 1385.83358 924.099454 1382.180625 925.501663 C 1372.795796 929.051938 1362.787292 934.422101 1352.21451 941.612153 C 1346.601432 945.430936 1340.216184 947.877344 1335.048589 943.670716 C 1329.287016 938.98674 1325.040084 938.390055 1320.288272 934.302764 C 1306.9535 922.906085 1294.004812 910.196698 1281.442209 896.144771 C 1279.452387 893.937037 1277.165578 892.05748 1274.611479 890.535934 C 1263.890203 884.211075 1253.109529 874.604449 1242.299157 861.716057 C 1235.706017 853.899486 1222.163353 846.530429 1213.224007 838.922698 C 1173.486978 805.001166 1149.935809 784.713883 1142.540802 778.090681 C 1138.858148 774.808915 1137.373206 771.198972 1138.056279 767.260852 C 1138.739352 763.412235 1142.718995 753.865278 1149.935809 738.590147 C 1152.608704 732.921641 1155.905273 718.601206 1159.825518 695.688509 C 1160.211603 693.242101 1160.271001 690.765859 1159.974012 688.319452 C 1159.201843 682.11393 1159.112747 674.923878 1159.736422 666.749296 C 1160.864977 651.712839 1154.865814 637.660911 1152.074125 621.759261 C 1151.895932 620.8344 1151.628642 619.939373 1151.272257 619.104014 L 1137.551399 589.239939 C 1137.402905 588.941597 1137.224712 588.673089 1137.01682 588.374746 C 1123.88994 570.74271 1112.129205 556.81012 1101.734616 546.576975 C 1088.696831 533.748252 1074.114708 524.081958 1057.928848 517.548259 C 1046.4948 512.923952 1040.555035 510.567047 1040.139252 510.417876 C 1038.684009 509.940528 1037.169369 509.582517 1035.62503 509.373677 C 1026.418394 508.120639 1019.379773 506.420088 1014.538864 504.272022 C 1012.222356 503.287492 1009.668257 502.839979 1007.143857 502.98915 C 1006.134097 503.048818 994.313964 502.720642 971.683459 502.00462 C 967.139539 501.855449 959.120856 503.854343 947.597712 508.001302 C 943.825961 509.314009 940.856078 509.075335 938.361377 509.67202 C 937.381316 509.910694 936.401254 510.298539 935.51029 510.775887 C 927.937089 514.922846 921.254853 517.309585 915.463582 517.936104 C 915.047799 517.995773 914.632015 518.11511 914.245931 518.294115 L 899.663807 525.096322 C 899.545012 525.126156 899.426217 525.215659 899.307421 525.275328 C 881.220837 537.686372 868.064257 548.009019 859.867381 556.273103 C 851.611108 564.567022 843.354834 575.009006 835.098561 587.539387 C 827.911445 598.488554 822.357765 610.541587 818.407821 623.728321 C 813.448117 640.375827 810.240644 658.843222 808.8151 679.190174 C 808.666606 681.1294 808.785401 683.09846 809.141787 684.978017 C 810.418837 692.078566 811.191006 699.656463 811.458296 707.711708 C 811.517693 709.710602 811.755284 711.679662 812.171067 713.618888 C 813.418418 719.734907 818.199929 739.544843 825.387045 749.061965 C 830.109158 755.327156 831.772292 762.547042 830.406146 770.721624 C 830.227953 771.646485 829.782471 772.511678 829.129097 773.197866 C 824.050598 778.359189 816.477397 785.042059 806.409495 793.156973 C 803.7663 795.305038 801.776479 796.528242 800.46973 796.826584 C 799.341175 797.065258 798.301716 797.602275 797.470149 798.407799 C 792.094661 803.598957 785.887607 807.954756 778.819286 811.475196 C 777.898623 811.952544 777.037357 812.549229 776.265188 813.265251 C 764.652947 824.065246 754.941431 832.269662 747.100941 837.848665 C 738.755571 843.72601 731.657552 853.690647 722.450916 858.106114 C 721.649047 858.493959 720.906577 858.941473 720.253203 859.478489 C 718.79796 860.61219 706.354152 871.054175 682.921779 890.834276 C 674.54671 897.875157 665.904352 904.647529 657.024403 911.091725 C 648.411744 917.327082 635.760044 926.247519 619.039606 937.853039 C 617.91105 938.658563 616.604302 939.165746 615.267855 939.314917 C 607.872847 940.299447 602.051877 937.256354 594.775665 932.870721 C 592.013674 931.259672 584.885956 930.424313 583.341617 928.962435 C 581.233001 926.963541 578.500709 925.591166 575.144741 924.875144 C 570.422628 923.890614 565.522322 921.772383 560.443823 918.58012 C 559.404364 917.893932 558.24611 917.38675 557.058157 917.058573 C 519.81583 906.855263 483.969347 909.062997 449.51871 923.681775 C 445.034187 925.591166 440.252676 927.261884 435.174177 928.723761 C 433.897128 929.111607 432.709175 929.648623 431.580619 930.33481 C 413.61283 941.16464 396.536005 954.530379 380.379844 970.372361 C 374.944959 975.682856 371.529594 979.710478 370.104051 982.485063 C 367.84694 986.870696 365.05525 991.465169 361.788379 996.238648 C 347.800233 1016.734771 343.553301 1035.977856 339.840947 1061.247458 C 337.197752 1079.148002 337.643234 1099.136943 341.236792 1121.184447 C 343.553301 1135.355711 349.196077 1149.586644 358.165123 1163.847411 C 369.59917 1181.986629 378.865204 1194.397673 385.963223 1201.020874 C 388.57672 1203.467282 393.239436 1206.749048 396.328113 1210.120317 C 412.09819 1227.275006 431.194534 1239.417542 453.617148 1246.518091 C 476.30705 1253.708143 498.284181 1256.631898 519.518841 1255.259523 C 536.150184 1254.215325 547.61393 1252.902618 553.93978 1251.321404 C 560.978402 1249.561183 570.986906 1245.802069 583.935594 1240.014226 C 590.469335 1237.120305 594.567773 1233.450694 600.47784 1230.705943 C 605.170254 1228.49821 609.268692 1226.200973 612.773153 1223.814234 C 642.323485 1203.467282 662.875072 1176.765637 674.427915 1143.679464 C 686.099553 1110.354617 687.436001 1076.731428 678.496654 1042.750228 C 676.209845 1034.03863 674.398216 1027.325926 673.061769 1022.582282 C 672.972673 1022.164603 672.79448 1021.776757 672.556889 1021.418747 L 644.372704 973.922636 C 644.075715 973.415454 643.897522 972.848603 643.867824 972.251918 C 643.689631 965.658551 646.332826 960.706067 651.767711 957.424301 C 661.063444 951.815464 668.874235 946.4453 675.140687 941.313811 C 699.731314 921.265201 716.035969 907.869627 724.084351 901.067421 C 736.557858 890.535934 746.596061 882.391186 754.19896 876.573509 C 762.069149 870.576827 772.285545 862.611085 784.818449 852.706117 C 802.281359 838.892863 817.130771 824.721599 835.009464 811.505031 C 835.425248 811.206688 835.841031 810.848677 836.197417 810.460832 C 843.503328 802.405587 851.343818 800.31719 859.807984 804.225476 C 860.90684 804.762492 861.9166 805.44868 862.777866 806.284039 C 886.982409 829.853089 915.52298 845.366894 948.429279 852.825454 C 956.210371 854.585674 960.011821 856.584568 961.912545 863.834288 C 962.952004 867.742574 963.427186 872.635389 963.397487 878.4829 C 963.0708 917.506087 962.744113 966.046396 962.387727 1024.133662 C 962.268931 1038.573435 962.536221 1051.431992 963.159896 1062.769004 C 964.496343 1086.278385 965.743694 1107.878375 962.536221 1127.3303 C 961.496762 1133.625325 957.160733 1136.54908 950.359702 1137.145765 C 938.985052 1138.100461 930.669381 1139.472836 925.353291 1141.322559 C 910.741469 1146.364546 896.396936 1154.210951 882.289994 1164.83194 C 868.955222 1174.856245 860.194068 1187.565632 850.155865 1196.784412 C 842.137182 1204.093801 835.395549 1213.103742 829.901266 1223.814234 C 821.526198 1240.193232 816.210108 1252.216431 813.982696 1259.853996 C 813.329322 1262.181067 811.280103 1273.488244 807.864738 1293.745693 C 805.28094 1309.169996 808.458714 1328.353412 808.696305 1340.764456 C 808.785401 1346.13462 809.795161 1351.41528 811.666187 1356.427433 C 819.417581 1377.311401 824.585177 1390.020787 827.109577 1394.555592 C 838.038744 1414.216356 855.145268 1434.145629 878.369749 1454.403078 C 885.645962 1460.698103 894.347718 1466.038432 904.445318 1470.424065 C 920.482684 1477.375444 929.986308 1481.224061 932.926492 1482.029585 C 1006.757772 1502.287034 1085.578455 1474.571025 1130.839465 1413.082655 C 1139.481823 1401.29813 1145.36219 1390.468301 1148.450868 1380.593167 C 1151.628642 1370.389857 1154.47973 1360.574392 1157.033829 1351.087104 C 1159.677024 1341.241804 1160.954074 1331.127997 1160.80558 1320.745681 C 1160.063109 1264.358967 1138.828449 1216.445176 1097.0719 1176.974476 C 1081.866101 1162.534704 1063.987409 1153.85294 1044.445581 1145.380016 C 1028.55671 1138.458472 1012.608441 1140.099355 999.243969 1128.493836 C 998.412402 1127.777814 997.937221 1126.733615 997.877823 1125.629748 C 996.363183 1079.177836 997.580835 1036.932552 999.243969 1008.053007 C 999.837946 997.73036 999.392463 977.025397 997.96692 945.967952 C 996.511677 915.029845 996.868063 887.582344 998.97668 863.595614 C 999.21427 861.417715 1000.283428 859.418821 1001.976261 858.046446 " stroke="#1b0a1a" stroke-width="6.47" stroke-opacity="1" stroke-miterlimit="4"/></g><path stroke-linecap="butt" transform="matrix(0.131529, 0, 0, 0.130932, 58.523794, 57.271645)" fill="none" stroke-linejoin="miter" d="M 928.293475 544.578081 C 908.038876 558.510672 895.892056 567.431109 891.823317 571.428898 C 874.597999 588.106238 861.560214 608.512859 852.680265 632.618925 C 850.334058 639.003452 848.700623 645.686322 847.809658 652.697369 C 845.849536 668.599019 844.186401 674.834375 846.681103 688.349286 C 847.482971 692.645417 848.076947 697.597901 848.433333 703.176904 C 850.007371 726.775788 858.38244 748.316109 873.55854 767.7382 C 880.508065 776.688472 886.418131 783.102834 891.318437 787.040953 C 916.889126 807.566911 953.121693 825.795632 986.087389 823.498395 C 1010.826511 821.738175 1033.813402 813.802267 1055.018363 799.690671 C 1069.392595 790.143714 1077.292482 784.83322 1078.688327 783.789021 C 1087.538577 777.135986 1094.220813 770.423282 1098.764733 763.621075 C 1107.793176 749.927158 1113.465652 739.66418 1115.722763 732.832139 C 1122.078311 713.559219 1129.087234 690.646523 1126.325243 669.434378 C 1124.8997 658.485211 1123.236565 647.327205 1121.365539 635.990194 C 1120.385478 630.05318 1118.30656 624.653183 1115.099087 619.879704 C 1110.079986 612.361476 1104.229317 599.652089 1097.33919 590.970325 C 1086.558516 577.365911 1073.728623 565.760392 1058.849512 556.094098 C 1044.029798 546.487473 1027.933034 540.460956 1010.559222 537.95488 C 984.661846 534.195766 958.734771 535.717312 932.837395 542.519519 C 931.20396 542.907364 929.659621 543.623386 928.293475 544.578081 " stroke="#1b0a1a" stroke-width="6.47" stroke-opacity="1" stroke-miterlimit="4"/><path stroke-linecap="butt" transform="matrix(0.131529, 0, 0, 0.130932, 58.523794, 57.271645)" fill="none" stroke-linejoin="miter" d="M 1514.518591 1204.004298 C 1562.244603 1186.312594 1594.824215 1120.617596 1588.587462 1071.391099 C 1585.498784 1047.19553 1581.014261 1024.432005 1565.927258 1005.18892 C 1532.842766 963.033138 1489.274589 939.881767 1434.569353 945.87845 C 1403.741972 949.249719 1376.47845 965.002198 1355.095296 984.304951 C 1337.54329 1000.146933 1325.455868 1020.165708 1318.83303 1044.331443 C 1306.003137 1091.320372 1313.695133 1134.639689 1341.968415 1174.349063 C 1354.204331 1191.533586 1373.152182 1202.184409 1391.921839 1210.98551 C 1421.858255 1225.007603 1455.002145 1224.321416 1487.22537 1216.475011 C 1497.827851 1213.909266 1506.321715 1207.047391 1514.518591 1204.004298 " stroke="#1b0a1a" stroke-width="6.47" stroke-opacity="1" stroke-miterlimit="4"/><path stroke-linecap="butt" transform="matrix(0.131529, 0, 0, 0.130932, 58.523794, 57.271645)" fill="none" stroke-linejoin="miter" d="M 648.322647 1075.388888 C 648.085057 1059.218729 642.590774 1044.540283 637.007395 1028.698301 C 619.158401 977.950258 563.502802 943.282871 510.579495 945.401102 C 485.394891 946.4453 458.517454 950.711597 438.500446 965.211037 C 415.216566 982.127052 396.773596 1000.833121 385.903826 1027.624269 C 381.092616 1039.468462 377.469359 1050.35796 375.034056 1060.322596 C 369.717966 1081.95242 374.588573 1098.957937 376.69719 1118.350194 C 376.905082 1120.110414 377.291166 1121.900468 377.855444 1123.60102 C 385.131656 1146.155706 397.040885 1166.980006 413.523733 1186.103754 C 414.830482 1187.6253 416.345122 1188.967841 417.978557 1190.101542 C 433.154657 1200.603195 442.628582 1208.330263 455.963355 1212.924736 C 512.420822 1232.466164 563.710694 1218.86175 608.645017 1179.18221 C 638.314143 1153.047415 648.857226 1113.666218 648.322647 1075.388888 " stroke="#1b0a1a" stroke-width="6.47" stroke-opacity="1" stroke-miterlimit="4"/><path stroke-linecap="butt" transform="matrix(0.131529, 0, 0, 0.130932, 58.523794, 57.271645)" fill="none" stroke-linejoin="miter" d="M 1116.999812 1260.86836 C 1112.723181 1252.723613 1105.120282 1237.687156 1098.051961 1228.378873 C 1080.024774 1204.571149 1058.433728 1187.446295 1033.278823 1177.004311 C 958.76447 1145.946866 881.488126 1186.610936 853.006952 1258.600958 C 841.275916 1288.256193 839.256396 1318.985461 846.918693 1350.788761 C 862.569974 1415.6484 918.700754 1455.029597 984.661846 1454.164404 C 1018.251217 1453.716891 1048.187633 1437.964412 1073.698924 1418.094808 C 1085.934841 1408.607519 1096.091839 1397.479348 1104.169919 1384.710293 C 1115.336678 1367.078257 1122.523794 1348.252851 1125.760966 1328.174407 C 1127.038015 1320.208665 1127.216208 1312.600933 1126.325243 1305.321379 C 1124.216627 1288.494867 1123.444457 1273.160068 1116.999812 1260.86836 " stroke="#1b0a1a" stroke-width="6.47" stroke-opacity="1" stroke-miterlimit="4"/><path stroke-linecap="butt" transform="matrix(0.131529, 0, 0, 0.130932, 58.523794, 57.271645)" fill="none" stroke-linejoin="miter" d="M 874.004022 752.791245 C 892.031209 780.745929 919.799611 800.824373 951.785246 809.088457 C 971.742857 814.249781 992.621131 814.637626 1012.816332 810.222158 C 1032.566051 805.926028 1051.127817 797.154761 1067.076086 784.594546 C 1085.162671 770.333779 1099.35871 751.62771 1108.268357 730.266394 C 1118.514452 705.861985 1121.424937 679.011169 1116.702824 653.05538 C 1110.852155 620.804566 1093.508041 591.925021 1067.99675 571.846577 " stroke="#7e3975" stroke-width="6.47" stroke-opacity="1" stroke-miterlimit="4"/><path stroke-linecap="butt" transform="matrix(0.131529, 0, 0, 0.130932, 58.523794, 57.271645)" fill="none" stroke-linejoin="miter" d="M 1067.99675 571.846577 C 1033.36792 544.548247 987.394138 536.433334 945.429697 550.246587 C 931.619743 554.781391 918.641357 561.52393 906.999417 570.265362 C 873.944624 594.997948 853.83852 633.752626 852.531771 675.22222 C 851.670505 702.759224 859.184308 729.81888 874.004022 752.791245 " stroke="#82496a" stroke-width="6.47" stroke-opacity="1" stroke-miterlimit="4"/><path stroke-linecap="butt" transform="matrix(0.131529, 0, 0, 0.130932, 58.523794, 57.271645)" fill="none" stroke-linejoin="miter" d="M 1067.99675 571.846577 C 1053.711615 568.564811 1039.693769 564.567022 1026.002611 559.793544 C 1013.588502 555.467579 1004.144275 553.110674 997.640232 552.692995 C 955.616394 550.097416 915.285389 563.612327 889.298917 598.488554 C 866.72781 628.680805 857.936958 662.990182 862.896661 701.416683 C 864.559796 714.066401 869.430403 726.537114 874.716794 740.529373 C 876.08294 744.109481 875.845349 748.196772 874.004022 752.791245 " stroke="#fb80da" stroke-width="6.47" stroke-opacity="1" stroke-miterlimit="4"/><path stroke-linecap="butt" transform="matrix(0.131529, 0, 0, 0.130932, 58.523794, 57.271645)" fill="none" stroke-linejoin="miter" d="M 1084.509297 597.981372 C 1075.510553 588.762591 1069.392595 580.37917 1056.651799 577.455414 C 1017.41965 568.594645 965.654597 574.591327 933.104685 601.113967 C 910.20689 619.790201 892.120306 646.670852 888.675242 676.743766 C 884.695599 711.142646 890.308677 743.005615 905.484777 772.273004 C 908.365563 777.852007 913.295568 782.535983 920.274792 786.324932 C 933.99565 793.813326 945.281203 798.885147 962.476823 799.183489 C 966.812852 799.272992 973.970269 799.631003 983.919375 800.257522 C 992.680529 800.824373 1006.728073 798.914981 1026.062008 794.529348 C 1064.937771 785.698413 1092.52798 753.80561 1102.981966 716.811151 C 1114.297219 676.713932 1108.802936 637.959254 1086.469419 600.487448 C 1085.934841 599.592421 1085.281466 598.757062 1084.509297 597.981372 " stroke="#e666d8" stroke-width="6.47" stroke-opacity="1" stroke-miterlimit="4"/><path stroke-linecap="butt" transform="matrix(0.131529, 0, 0, 0.130932, 58.523794, 57.271645)" fill="none" stroke-linejoin="miter" d="M 1370.835673 1187.386626 C 1385.595989 1198.81314 1402.672814 1206.868385 1420.907893 1211.015345 C 1459.605463 1219.876114 1500.560143 1210.448494 1531.892404 1185.477235 C 1554.255619 1167.666193 1570.292985 1143.112613 1577.539498 1115.515941 C 1588.349871 1074.434192 1578.578957 1030.786698 1551.345134 998.655221 C 1546.712118 993.195555 1541.633618 988.123734 1536.109637 983.469593 " stroke="#7e3975" stroke-width="6.47" stroke-opacity="1" stroke-miterlimit="4"/><path stroke-linecap="butt" transform="matrix(0.131529, 0, 0, 0.130932, 58.523794, 57.271645)" fill="none" stroke-linejoin="miter" d="M 1536.109637 983.469593 C 1518.527932 968.671809 1497.293272 958.856344 1474.543972 955.007727 C 1450.784911 951.039773 1426.342778 953.724855 1403.890466 962.794464 C 1364.925607 978.517109 1335.553469 1011.991127 1325.069783 1052.655196 C 1312.150794 1102.896057 1330.148282 1155.941337 1370.865372 1187.386626 " stroke="#82496a" stroke-width="6.47" stroke-opacity="1" stroke-miterlimit="4"/><path stroke-linecap="butt" transform="matrix(0.131529, 0, 0, 0.130932, 58.523794, 57.271645)" fill="none" stroke-linejoin="miter" d="M 1536.109637 983.469593 C 1540.32687 991.495003 1536.317529 991.495003 1524.022215 983.469593 " stroke="#fb80da" stroke-width="6.47" stroke-opacity="1" stroke-miterlimit="4"/><path stroke-linecap="butt" transform="matrix(0.131529, 0, 0, 0.130932, 58.523794, 57.271645)" fill="none" stroke-linejoin="miter" d="M 1524.022215 983.469593 C 1505.549546 974.16131 1493.729413 968.552472 1488.532119 966.643081 C 1471.960174 960.58673 1453.160817 959.572366 1432.074651 963.599989 C 1383.784361 972.818769 1351.620533 1000.47511 1335.52377 1046.539177 C 1328.336654 1067.124803 1327.000207 1088.008771 1331.544127 1109.131413 C 1336.325638 1131.536928 1344.463116 1152.86841 1361.985423 1168.531386 " stroke="#ff89ce" stroke-width="6.47" stroke-opacity="1" stroke-miterlimit="4"/><path stroke-linecap="butt" transform="matrix(0.131529, 0, 0, 0.130932, 58.523794, 57.271645)" fill="none" stroke-linejoin="miter" d="M 1361.985423 1168.56122 L 1374.577725 1180.256243 " stroke="#ff72c2" stroke-width="6.47" stroke-opacity="1" stroke-miterlimit="4"/><path stroke-linecap="butt" transform="matrix(0.131529, 0, 0, 0.130932, 58.523794, 57.271645)" fill="none" stroke-linejoin="miter" d="M 1374.577725 1180.256243 C 1373.805556 1183.000993 1372.558205 1185.387732 1370.835673 1187.386626 " stroke="#fb80da" stroke-width="6.47" stroke-opacity="1" stroke-miterlimit="4"/><path stroke-linecap="butt" transform="matrix(0.131529, 0, 0, 0.130932, 58.523794, 57.271645)" fill="none" stroke-linejoin="miter" d="M 1499.490985 979.680644 C 1507.45027 981.142522 1515.142266 983.58893 1522.537274 986.960199 C 1540.059581 995.015444 1546.118141 1006.382289 1554.968391 1024.073994 C 1569.16443 1052.416522 1572.639192 1083.861812 1565.333281 1118.469531 C 1560.284481 1142.426426 1551.671821 1150.093826 1534.238611 1168.650723 C 1516.775702 1187.147952 1496.699296 1199.678333 1470.861317 1201.498222 C 1449.448464 1202.989934 1429.372058 1203.73579 1409.978725 1197.530268 C 1397.564616 1193.53248 1385.774182 1187.774471 1374.577725 1180.256243 " stroke="#fb62cd" stroke-width="6.47" stroke-opacity="1" stroke-miterlimit="4"/><path stroke-linecap="butt" transform="matrix(0.131529, 0, 0, 0.130932, 58.523794, 57.271645)" fill="none" stroke-linejoin="miter" d="M 1524.022215 983.469593 L 1499.490985 979.680644 " stroke="#fb79d9" stroke-width="6.47" stroke-opacity="1" stroke-miterlimit="4"/><path stroke-linecap="butt" transform="matrix(0.131529, 0, 0, 0.130932, 58.523794, 57.271645)" fill="none" stroke-linejoin="miter" d="M 1499.490985 979.680644 C 1440.776407 975.354679 1384.437735 1000.892789 1360.233193 1055.817626 C 1356.223851 1064.857401 1353.96674 1074.971208 1353.46186 1086.188883 C 1352.155112 1113.815389 1354.9765 1141.26289 1361.985423 1168.531386 " stroke="#ff6bc1" stroke-width="6.47" stroke-opacity="1" stroke-miterlimit="4"/><path stroke-linecap="butt" transform="matrix(0.131529, 0, 0, 0.130932, 58.523794, 57.271645)" fill="none" stroke-linejoin="miter" d="M 423.354045 1179.9579 C 429.679894 1185.775577 436.599721 1190.907067 443.935331 1195.352368 C 467.338005 1209.43413 494.571828 1215.818657 521.83535 1213.551255 C 539.446753 1212.089377 556.612674 1207.047391 572.234257 1198.753472 C 613.515624 1176.765637 640.006976 1134.251844 641.521616 1087.501589 C 641.818605 1078.133638 641.105833 1068.765686 639.383301 1059.546906 " stroke="#7e3975" stroke-width="6.47" stroke-opacity="1" stroke-miterlimit="4"/><path stroke-linecap="butt" transform="matrix(0.131529, 0, 0, 0.130932, 58.523794, 57.271645)" fill="none" stroke-linejoin="miter" d="M 639.383301 1059.546906 C 633.799922 1029.444157 617.762556 1002.265164 594.15199 982.872908 " stroke="#824268" stroke-width="6.47" stroke-opacity="1" stroke-miterlimit="4"/><path stroke-linecap="butt" transform="matrix(0.131529, 0, 0, 0.130932, 58.523794, 57.271645)" fill="none" stroke-linejoin="miter" d="M 594.15199 982.872908 C 561.483282 955.962423 517.647815 946.683974 476.81193 958.020986 C 437.045203 969.059655 404.76258 998.327044 389.883468 1036.843049 C 380.73623 1060.56127 378.687011 1086.397722 384.003101 1111.21981 C 389.645878 1137.682782 403.426133 1161.729179 423.354045 1179.987735 " stroke="#82496a" stroke-width="6.47" stroke-opacity="1" stroke-miterlimit="4"/><path stroke-linecap="butt" transform="matrix(0.131529, 0, 0, 0.130932, 58.523794, 57.271645)" fill="none" stroke-linejoin="miter" d="M 594.15199 982.872908 C 584.499872 986.065172 574.966549 979.203296 564.868948 974.16131 C 550.435319 966.881755 534.487049 963.092806 517.02414 962.794464 C 502.085631 962.496122 493.829357 962.525956 492.285018 962.824298 C 435.916648 973.892801 396.684499 1014.079523 390.269553 1071.719276 C 386.141416 1109.161248 396.565704 1141.292725 421.572115 1168.054038 " stroke="#ff89ce" stroke-width="6.47" stroke-opacity="1" stroke-miterlimit="4"/><path stroke-linecap="butt" transform="matrix(0.131529, 0, 0, 0.130932, 58.523794, 57.271645)" fill="none" stroke-linejoin="miter" d="M 421.572115 1168.054038 C 422.314586 1170.768954 423.383743 1172.678346 424.809287 1173.841881 " stroke="#f975c8" stroke-width="6.47" stroke-opacity="1" stroke-miterlimit="4"/><path stroke-linecap="butt" transform="matrix(0.131529, 0, 0, 0.130932, 58.523794, 57.271645)" fill="none" stroke-linejoin="miter" d="M 424.809287 1173.871715 L 423.354045 1179.987735 " stroke="#fb80da" stroke-width="6.47" stroke-opacity="1" stroke-miterlimit="4"/><path stroke-linecap="butt" transform="matrix(0.131529, 0, 0, 0.130932, 58.523794, 57.271645)" fill="none" stroke-linejoin="miter" d="M 622.811356 1130.403227 C 617.287375 1144.365651 607.308569 1157.194375 592.904639 1168.9789 C 582.034869 1177.809835 572.263955 1183.985523 563.591898 1187.476129 C 515.747091 1206.778883 467.427102 1204.600983 424.809287 1173.841881 " stroke="#f565d3" stroke-width="6.47" stroke-opacity="1" stroke-miterlimit="4"/><path stroke-linecap="butt" transform="matrix(0.131529, 0, 0, 0.130932, 58.523794, 57.271645)" fill="none" stroke-linejoin="miter" d="M 639.383301 1059.546906 C 638.373541 1061.456297 638.046854 1063.455191 638.373541 1065.543588 C 638.373541 1065.603257 638.373541 1065.662925 638.373541 1065.722594 C 638.373541 1066.319278 637.89836 1066.826461 637.274684 1066.826461 C 637.155889 1066.826461 637.007395 1066.796626 636.8886 1066.736958 C 635.314562 1066.110439 634.156308 1064.678395 633.384138 1062.470661 C 627.147385 1044.480614 618.950509 1027.862942 608.763812 1012.617646 C 608.704414 1012.587811 608.674715 1012.557977 608.615318 1012.557977 C 608.526221 1012.557977 608.437125 1012.64748 608.437125 1012.766817 C 613.188937 1025.386701 617.376471 1035.888353 621.059126 1044.301609 C 633.235644 1072.196624 632.938656 1101.732522 622.811356 1130.403227 " stroke="#fb79d9" stroke-width="6.47" stroke-opacity="1" stroke-miterlimit="4"/><path stroke-linecap="butt" transform="matrix(0.131529, 0, 0, 0.130932, 58.523794, 57.271645)" fill="none" stroke-linejoin="miter" d="M 622.811356 1130.403227 C 630.56275 1097.555728 630.05787 1074.464026 617.851652 1042.720394 C 612.327671 1028.310456 597.151571 1014.795545 592.696747 999.550248 C 590.796023 992.986715 584.084088 987.049702 578.47101 986.363514 C 558.543098 983.946941 547.732726 982.664068 546.039893 982.485063 C 509.361843 978.039761 478.534462 987.258541 453.528051 1010.111569 C 434.84749 1027.176755 420.68115 1046.121498 414.414698 1071.092757 C 412.306081 1079.62535 412.246684 1092.722581 414.206806 1110.414286 C 416.345122 1129.896045 418.810124 1149.109296 421.572115 1168.054038 " stroke="#f96ec6" stroke-width="6.47" stroke-opacity="1" stroke-miterlimit="4"/><path stroke-linecap="butt" transform="matrix(0.131529, 0, 0, 0.130932, 58.523794, 57.271645)" fill="none" stroke-linejoin="miter" d="M 894.941694 1412.605307 C 920.690576 1434.50364 949.112352 1445.572143 980.147624 1445.810817 C 1069.51139 1446.46717 1137.759291 1363.677153 1113.020169 1275.964486 " stroke="#7e3975" stroke-width="6.47" stroke-opacity="1" stroke-miterlimit="4"/><path stroke-linecap="butt" transform="matrix(0.131529, 0, 0, 0.130932, 58.523794, 57.271645)" fill="none" stroke-linejoin="miter" d="M 1113.020169 1275.964486 C 1103.872931 1247.472787 1087.954361 1223.754565 1065.323856 1204.72032 " stroke="#824268" stroke-width="6.47" stroke-opacity="1" stroke-miterlimit="4"/><path stroke-linecap="butt" transform="matrix(0.131529, 0, 0, 0.130932, 58.523794, 57.271645)" fill="none" stroke-linejoin="miter" d="M 1065.323856 1204.750154 C 1033.278823 1178.555691 990.334321 1169.336911 952.43862 1178.854033 C 885.67566 1195.561208 846.027729 1258.929135 851.225023 1327.130209 C 853.749423 1360.723563 868.331546 1389.215263 894.941694 1412.605307 " stroke="#82496a" stroke-width="6.47" stroke-opacity="1" stroke-miterlimit="4"/><path stroke-linecap="butt" transform="matrix(0.131529, 0, 0, 0.130932, 58.523794, 57.271645)" fill="none" stroke-linejoin="miter" d="M 1065.323856 1204.750154 C 1058.879211 1204.809823 1054.216495 1204.242972 1051.30601 1203.019768 C 1033.60551 1195.620877 1022.112065 1189.952371 1008.094219 1187.028615 C 985.968594 1182.404308 948.577773 1186.07392 928.234077 1196.814246 C 895.535671 1214.088271 874.330709 1239.357873 864.589494 1272.593217 C 854.432496 1307.379941 856.184727 1370.867205 889.47711 1394.197581 " stroke="#ff89ce" stroke-width="6.47" stroke-opacity="1" stroke-miterlimit="4"/><path stroke-linecap="butt" transform="matrix(0.131529, 0, 0, 0.130932, 58.523794, 57.271645)" fill="none" stroke-linejoin="miter" d="M 889.47711 1394.197581 L 899.931097 1405.385421 " stroke="#f975c8" stroke-width="6.47" stroke-opacity="1" stroke-miterlimit="4"/><path stroke-linecap="butt" transform="matrix(0.131529, 0, 0, 0.130932, 58.523794, 57.271645)" fill="none" stroke-linejoin="miter" d="M 899.931097 1405.385421 L 894.941694 1412.605307 " stroke="#fb80da" stroke-width="6.47" stroke-opacity="1" stroke-miterlimit="4"/><path stroke-linecap="butt" transform="matrix(0.131529, 0, 0, 0.130932, 58.523794, 57.271645)" fill="none" stroke-linejoin="miter" d="M 1097.279792 1257.616428 C 1101.318832 1271.519184 1107.080404 1288.077188 1107.911971 1300.96558 C 1109.872094 1332.500372 1100.012084 1366.929085 1080.767245 1391.572168 C 1057.156679 1421.824088 1005.688614 1432.415243 969.782734 1432.146735 C 941.747043 1431.937895 918.463164 1423.017457 899.931097 1405.385421 " stroke="#f565d3" stroke-width="6.47" stroke-opacity="1" stroke-miterlimit="4"/><path stroke-linecap="butt" transform="matrix(0.131529, 0, 0, 0.130932, 58.523794, 57.271645)" fill="none" stroke-linejoin="miter" d="M 1113.020169 1275.964486 C 1112.75288 1278.768905 1112.218301 1280.91697 1111.416433 1282.468351 C 1111.357035 1282.557853 1111.297638 1282.647356 1111.208541 1282.736859 C 1110.763059 1283.184372 1110.020588 1283.154538 1109.575106 1282.707025 C 1109.515708 1282.617522 1109.426612 1282.528019 1109.396913 1282.438516 L 1097.279792 1257.616428 " stroke="#fb79d9" stroke-width="6.47" stroke-opacity="1" stroke-miterlimit="4"/><path stroke-linecap="butt" transform="matrix(0.131529, 0, 0, 0.130932, 58.523794, 57.271645)" fill="none" stroke-linejoin="miter" d="M 1097.279792 1257.616428 C 1086.350624 1242.311463 1077.025193 1230.616441 1069.273799 1222.531361 C 1045.48504 1197.768942 1010.648318 1197.202091 978.217201 1203.198774 C 958.734771 1206.838551 942.162827 1214.565619 928.531066 1226.350144 C 885.913251 1263.2551 872.073598 1309.856183 886.923011 1366.213064 C 889.655303 1376.476042 893.27856 1382.592062 889.47711 1394.197581 " stroke="#f96ec6" stroke-width="6.47" stroke-opacity="1" stroke-miterlimit="4"/><path fill="#ff54b5" d="M 255.75 185.542969 C 256.796875 185.734375 257.808594 186.054688 258.78125 186.496094 C 261.085938 187.550781 261.882812 189.039062 263.046875 191.355469 C 264.914062 195.066406 265.371094 199.183594 264.410156 203.714844 C 263.746094 206.851562 262.613281 207.855469 260.320312 210.285156 C 258.023438 212.707031 255.382812 214.347656 251.984375 214.585938 C 249.167969 214.78125 246.527344 214.878906 243.976562 214.066406 C 242.34375 213.542969 240.792969 212.789062 239.320312 211.804688 L 237.664062 210.269531 C 236.742188 206.699219 236.371094 203.105469 236.542969 199.488281 C 236.609375 198.019531 236.90625 196.695312 237.433594 195.511719 C 240.617188 188.320312 248.027344 184.976562 255.75 185.542969 Z M 255.75 185.542969 " fill-opacity="1" fill-rule="nonzero"/><path fill="#311330" d="M 190.3125 169.617188 C 190.089844 169.796875 189.949219 170.058594 189.917969 170.34375 C 189.640625 173.484375 189.59375 177.078125 189.785156 181.128906 C 189.972656 185.195312 190.03125 187.90625 189.953125 189.257812 C 189.734375 193.039062 189.574219 198.570312 189.773438 204.652344 C 189.78125 204.796875 189.84375 204.933594 189.953125 205.027344 C 191.710938 206.546875 193.808594 206.332031 195.898438 207.238281 C 198.46875 208.347656 200.820312 209.484375 202.820312 211.375 C 208.3125 216.542969 211.105469 222.816406 211.203125 230.199219 C 211.222656 231.558594 211.054688 232.882812 210.707031 234.171875 C 210.371094 235.414062 209.996094 236.699219 209.578125 238.035156 C 209.171875 239.328125 208.398438 240.746094 207.261719 242.289062 C 201.308594 250.335938 190.941406 253.96875 181.230469 251.316406 C 180.84375 251.210938 179.59375 250.707031 177.484375 249.796875 C 176.15625 249.222656 175.011719 248.523438 174.054688 247.695312 C 171 245.046875 168.75 242.4375 167.3125 239.863281 C 166.980469 239.269531 166.300781 237.605469 165.28125 234.871094 C 165.035156 234.214844 164.902344 233.523438 164.890625 232.820312 C 164.859375 231.195312 164.441406 228.683594 164.78125 226.664062 C 165.230469 224.007812 165.5 222.53125 165.585938 222.226562 C 165.878906 221.226562 166.578125 219.652344 167.679688 217.507812 C 168.402344 216.105469 169.289062 214.925781 170.34375 213.96875 C 171.664062 212.761719 172.816406 211.097656 174.570312 209.785156 C 176.425781 208.394531 178.3125 207.367188 180.234375 206.707031 C 180.933594 206.464844 182.027344 206.285156 183.523438 206.160156 C 184.417969 206.082031 184.988281 205.699219 185.125 204.875 C 185.546875 202.328125 185.382812 199.5 185.207031 196.421875 C 185.125 194.9375 185.089844 193.253906 185.105469 191.363281 C 185.152344 183.757812 185.195312 177.402344 185.238281 172.292969 C 185.242188 171.527344 185.179688 170.886719 185.042969 170.375 C 184.792969 169.425781 184.292969 169.164062 183.269531 168.933594 C 178.941406 167.957031 175.1875 165.925781 172.003906 162.839844 C 171.890625 162.730469 171.757812 162.640625 171.609375 162.570312 C 170.5 162.058594 169.464844 162.332031 168.507812 163.386719 C 168.460938 163.4375 168.40625 163.484375 168.351562 163.523438 C 166 165.253906 164.046875 167.109375 161.75 168.917969 C 160.101562 170.214844 158.757812 171.257812 157.722656 172.042969 C 156.722656 172.804688 155.402344 173.871094 153.761719 175.25 C 152.703125 176.140625 150.558594 177.894531 147.324219 180.519531 C 146.5 181.191406 145.472656 181.894531 144.25 182.628906 C 143.535156 183.058594 143.1875 183.707031 143.210938 184.570312 C 143.214844 184.648438 143.238281 184.722656 143.277344 184.789062 L 146.984375 191.007812 C 147.015625 191.054688 147.039062 191.105469 147.050781 191.160156 C 147.226562 191.78125 147.464844 192.660156 147.765625 193.800781 C 148.941406 198.25 148.765625 202.652344 147.230469 207.015625 C 145.710938 211.347656 143.007812 214.84375 139.121094 217.507812 C 138.660156 217.820312 138.121094 218.121094 137.503906 218.410156 C 136.726562 218.769531 136.1875 219.25 135.328125 219.628906 C 133.621094 220.386719 132.308594 220.878906 131.382812 221.109375 C 130.550781 221.316406 129.042969 221.488281 126.855469 221.625 C 124.0625 221.804688 121.171875 221.421875 118.1875 220.480469 C 115.238281 219.550781 112.726562 217.960938 110.652344 215.714844 C 110.246094 215.273438 109.632812 214.84375 109.289062 214.523438 C 108.355469 213.65625 107.136719 212.03125 105.632812 209.65625 C 104.453125 207.789062 103.710938 205.925781 103.40625 204.070312 C 102.933594 201.183594 102.875 198.566406 103.222656 196.222656 C 103.710938 192.914062 104.269531 190.394531 106.109375 187.710938 C 106.539062 187.085938 106.90625 186.484375 107.203125 185.910156 C 107.390625 185.546875 107.839844 185.019531 108.554688 184.324219 C 110.679688 182.25 112.925781 180.5 115.289062 179.082031 C 115.4375 178.992188 115.59375 178.921875 115.761719 178.871094 C 116.429688 178.679688 117.058594 178.460938 117.648438 178.210938 C 122.179688 176.296875 126.894531 176.007812 131.792969 177.34375 C 131.949219 177.386719 132.101562 177.453125 132.238281 177.542969 C 132.90625 177.960938 133.550781 178.238281 134.171875 178.367188 C 134.613281 178.460938 134.972656 178.640625 135.25 178.902344 C 135.453125 179.09375 136.390625 179.203125 136.753906 179.414062 C 137.710938 179.988281 138.476562 180.386719 139.449219 180.257812 C 139.625 180.234375 139.796875 180.171875 139.945312 180.066406 C 142.144531 178.546875 143.808594 177.378906 144.941406 176.5625 C 146.109375 175.71875 147.246094 174.832031 148.347656 173.910156 C 151.429688 171.320312 153.066406 169.953125 153.253906 169.804688 C 153.34375 169.734375 153.441406 169.675781 153.546875 169.625 C 154.757812 169.046875 155.691406 167.742188 156.789062 166.972656 C 157.820312 166.242188 159.097656 165.167969 160.625 163.753906 C 160.726562 163.660156 160.839844 163.582031 160.960938 163.519531 C 161.890625 163.058594 162.707031 162.488281 163.414062 161.808594 C 163.523438 161.703125 163.660156 161.632812 163.808594 161.601562 C 163.980469 161.5625 164.242188 161.402344 164.589844 161.121094 C 165.914062 160.054688 166.910156 159.183594 167.578125 158.507812 C 167.664062 158.417969 167.722656 158.304688 167.746094 158.183594 C 167.925781 157.113281 167.707031 156.167969 167.085938 155.347656 C 166.140625 154.101562 165.511719 151.507812 165.347656 150.707031 C 165.292969 150.453125 165.261719 150.195312 165.253906 149.933594 C 165.21875 148.878906 165.117188 147.886719 164.949219 146.957031 C 164.902344 146.710938 164.886719 146.453125 164.90625 146.199219 C 165.09375 143.535156 165.515625 141.117188 166.167969 138.9375 C 166.6875 137.210938 167.417969 135.632812 168.363281 134.199219 C 169.449219 132.558594 170.535156 131.191406 171.621094 130.105469 C 172.699219 129.023438 174.429688 127.671875 176.808594 126.046875 C 176.824219 126.035156 176.839844 126.027344 176.855469 126.023438 L 178.773438 125.132812 C 178.824219 125.109375 178.878906 125.09375 178.933594 125.085938 C 179.695312 125.003906 180.574219 124.691406 181.570312 124.148438 C 181.6875 124.085938 181.816406 124.035156 181.945312 124.003906 C 182.273438 123.925781 182.664062 123.957031 183.160156 123.785156 C 184.675781 123.242188 185.730469 122.980469 186.328125 123 C 189.304688 123.09375 190.859375 123.136719 190.992188 123.128906 C 191.324219 123.109375 191.660156 123.167969 191.964844 123.296875 C 192.601562 123.578125 193.527344 123.800781 194.738281 123.964844 C 194.941406 123.992188 195.140625 124.039062 195.332031 124.101562 C 195.386719 124.121094 196.167969 124.429688 197.671875 125.035156 C 199.800781 125.886719 201.71875 127.15625 203.433594 128.835938 C 204.800781 130.175781 206.347656 132 208.074219 134.308594 C 208.101562 134.34375 208.125 134.382812 208.144531 134.421875 L 209.949219 138.332031 C 209.996094 138.441406 210.03125 138.558594 210.054688 138.679688 C 210.421875 140.761719 211.207031 142.597656 211.0625 144.570312 C 210.980469 145.640625 210.992188 146.582031 211.09375 147.394531 C 211.132812 147.714844 211.125 148.039062 211.074219 148.359375 C 210.558594 151.359375 210.125 153.234375 209.773438 153.976562 C 208.824219 155.976562 208.300781 157.226562 208.210938 157.730469 C 208.121094 158.246094 208.316406 158.71875 208.800781 159.148438 C 209.773438 160.015625 212.871094 162.671875 218.097656 167.113281 C 219.273438 168.109375 221.054688 169.074219 221.921875 170.097656 C 223.34375 171.785156 224.761719 173.042969 226.171875 173.871094 C 226.507812 174.070312 226.808594 174.316406 227.070312 174.605469 C 228.722656 176.445312 230.425781 178.109375 232.179688 179.601562 C 232.804688 180.136719 233.363281 180.214844 234.121094 180.828125 C 234.800781 181.378906 235.640625 181.058594 236.375 180.558594 C 237.769531 179.617188 239.085938 178.914062 240.320312 178.449219 C 240.800781 178.265625 241.84375 177.914062 243.441406 177.398438 C 245.375 176.773438 247.648438 176.617188 249.492188 176.6875 C 250.367188 176.722656 251 176.703125 251.390625 176.625 C 251.796875 176.550781 252.609375 176.714844 253.828125 177.125 C 253.859375 177.136719 253.894531 177.144531 253.925781 177.144531 L 255.0625 177.164062 C 255.226562 177.171875 255.390625 177.199219 255.542969 177.25 C 257.503906 177.921875 259.351562 178.742188 261.082031 179.707031 C 262.953125 180.753906 265.015625 182.734375 266.238281 183.847656 C 267.78125 185.253906 268.949219 186.886719 269.738281 188.738281 C 271.222656 192.214844 272.042969 195.75 272.203125 199.347656 C 272.34375 202.554688 271.324219 205.679688 270.132812 208.6875 C 267.9375 214.25 262.496094 218.441406 256.964844 220.574219 C 256.09375 220.910156 255.109375 221.144531 254.003906 221.289062 C 252.230469 221.511719 251.292969 221.628906 251.195312 221.644531 C 248.722656 221.957031 246.519531 221.542969 244.179688 221.203125 C 242.074219 220.898438 240.71875 220.152344 238.46875 219 C 237.582031 218.542969 236.875 218.117188 236.34375 217.71875 C 234.492188 216.316406 233.714844 215.222656 232.003906 213.492188 C 231.039062 212.519531 230.128906 211.132812 229.269531 209.34375 C 229.207031 209.203125 229.128906 209.070312 229.035156 208.945312 C 226.5625 205.460938 226.386719 201.1875 226.382812 197.042969 C 226.382812 196.769531 226.6875 195.539062 227.296875 193.351562 C 227.601562 192.253906 228.09375 191.085938 228.777344 189.851562 C 229.851562 187.898438 230.632812 186.582031 231.121094 185.898438 C 231.449219 185.441406 231.421875 184.816406 231.058594 184.386719 C 230.855469 184.144531 230.425781 183.683594 229.777344 183.003906 C 229.4375 182.652344 228.945312 182.273438 228.300781 181.875 C 227.511719 181.382812 226.359375 180.480469 224.847656 179.160156 C 222.875 177.445312 221.046875 175.878906 219.371094 174.464844 C 217.53125 172.910156 216.308594 171.585938 214.636719 170.269531 C 212.90625 168.902344 211.214844 167.398438 209.570312 165.761719 C 208.21875 164.414062 206.984375 163.429688 205.867188 162.808594 C 204.980469 162.316406 204.421875 162.699219 203.683594 163.308594 C 200.105469 166.257812 196.117188 168.152344 191.722656 168.984375 C 191.183594 169.085938 190.714844 169.296875 190.3125 169.617188 Z M 180.621094 128.574219 C 177.957031 130.398438 176.359375 131.566406 175.824219 132.089844 C 173.558594 134.273438 171.84375 136.945312 170.675781 140.101562 C 170.363281 140.9375 170.152344 141.8125 170.035156 142.730469 C 169.777344 144.8125 169.558594 145.628906 169.886719 147.398438 C 169.992188 147.960938 170.070312 148.609375 170.117188 149.339844 C 170.324219 152.429688 171.425781 155.25 173.421875 157.792969 C 174.335938 158.964844 175.113281 159.804688 175.757812 160.320312 C 179.121094 163.007812 183.886719 165.394531 188.222656 165.09375 C 191.476562 164.863281 194.5 163.824219 197.289062 161.976562 C 199.179688 160.726562 200.21875 160.03125 200.402344 159.894531 C 201.566406 159.023438 202.445312 158.144531 203.042969 157.253906 C 204.230469 155.460938 204.976562 154.117188 205.273438 153.222656 C 206.109375 150.699219 207.03125 147.699219 206.664062 144.921875 C 206.476562 143.488281 206.261719 142.027344 206.015625 140.542969 C 205.886719 139.765625 205.613281 139.058594 205.191406 138.433594 C 204.53125 137.449219 203.761719 135.785156 202.855469 134.648438 C 201.4375 132.867188 199.75 131.347656 197.792969 130.082031 C 195.84375 128.824219 193.726562 128.035156 191.441406 127.707031 C 188.035156 127.214844 184.625 127.414062 181.21875 128.304688 C 181.003906 128.355469 180.800781 128.449219 180.621094 128.574219 Z M 257.726562 214.914062 C 264 212.597656 268.289062 204 267.46875 197.550781 C 267.0625 194.382812 266.472656 191.402344 264.488281 188.882812 C 260.136719 183.367188 254.40625 180.332031 247.207031 181.117188 C 243.15625 181.558594 239.570312 183.621094 236.757812 186.148438 C 234.449219 188.222656 232.859375 190.84375 231.988281 194.007812 C 230.296875 200.160156 231.3125 205.832031 235.03125 211.03125 C 236.640625 213.28125 239.132812 214.675781 241.601562 215.828125 C 245.539062 217.664062 249.894531 217.574219 254.136719 216.546875 C 255.527344 216.210938 256.648438 215.3125 257.726562 214.914062 Z M 143.796875 198.074219 C 143.765625 195.957031 143.042969 194.035156 142.308594 191.960938 C 139.957031 185.316406 132.640625 180.777344 125.679688 181.054688 C 122.367188 181.191406 118.832031 181.75 116.199219 183.648438 C 113.132812 185.863281 110.710938 188.3125 109.28125 191.820312 C 108.648438 193.371094 108.171875 194.796875 107.851562 196.101562 C 107.152344 198.933594 107.789062 201.160156 108.070312 203.699219 C 108.097656 203.929688 108.148438 204.164062 108.222656 204.386719 C 109.179688 207.339844 110.746094 210.066406 112.914062 212.570312 C 113.085938 212.769531 113.28125 212.945312 113.5 213.09375 C 115.496094 214.46875 116.742188 215.480469 118.496094 216.082031 C 125.921875 218.640625 132.667969 216.859375 138.578125 211.664062 C 142.480469 208.242188 143.867188 203.085938 143.796875 198.074219 Z M 205.441406 222.359375 C 204.878906 221.292969 203.878906 219.324219 202.949219 218.105469 C 200.574219 214.988281 197.734375 212.746094 194.429688 211.378906 C 184.628906 207.3125 174.464844 212.636719 170.71875 222.0625 C 169.175781 225.945312 168.910156 229.96875 169.917969 234.132812 C 171.976562 242.625 179.359375 247.78125 188.035156 247.667969 C 192.453125 247.609375 196.390625 245.546875 199.746094 242.945312 C 201.351562 241.703125 202.6875 240.246094 203.753906 238.574219 C 205.222656 236.265625 206.167969 233.800781 206.59375 231.171875 C 206.761719 230.128906 206.785156 229.132812 206.664062 228.179688 C 206.390625 225.976562 206.285156 223.96875 205.441406 222.359375 Z M 205.441406 222.359375 " fill-opacity="1" fill-rule="nonzero"/><path fill="#ff90cf" d="M 198.996094 132.144531 C 197.117188 131.714844 195.273438 131.191406 193.472656 130.566406 C 191.839844 130 190.597656 129.691406 189.742188 129.636719 C 184.214844 129.296875 178.910156 131.066406 175.492188 135.632812 C 172.523438 139.585938 171.367188 144.078125 172.019531 149.109375 C 172.238281 150.765625 172.878906 152.398438 173.574219 154.230469 C 173.753906 154.699219 173.722656 155.234375 173.480469 155.835938 C 171.53125 152.828125 170.542969 149.285156 170.65625 145.679688 C 170.828125 140.25 173.472656 135.175781 177.820312 131.9375 C 179.351562 130.792969 181.058594 129.910156 182.875 129.316406 C 188.394531 127.507812 194.441406 128.570312 198.996094 132.144531 Z M 198.996094 132.144531 " fill-opacity="1" fill-rule="nonzero"/><path fill="#ff90cf" d="M 260.566406 186.039062 C 261.121094 187.089844 260.59375 187.089844 258.976562 186.039062 C 256.546875 184.820312 254.992188 184.085938 254.308594 183.835938 C 252.128906 183.042969 249.65625 182.910156 246.882812 183.4375 C 240.53125 184.644531 236.300781 188.265625 234.183594 194.296875 C 233.238281 196.992188 233.066406 199.726562 233.660156 202.492188 C 234.292969 205.425781 235.359375 208.21875 237.664062 210.269531 L 239.320312 211.804688 C 239.21875 212.164062 239.058594 212.476562 238.832031 212.738281 C 233.476562 208.621094 231.109375 201.675781 232.808594 195.097656 C 234.1875 189.773438 238.050781 185.390625 243.175781 183.332031 C 246.128906 182.144531 249.34375 181.792969 252.46875 182.3125 C 255.460938 182.816406 258.253906 184.101562 260.566406 186.039062 Z M 260.566406 186.039062 " fill-opacity="1" fill-rule="nonzero"/><path fill="#ff90cf" d="M 136.671875 185.960938 C 135.402344 186.378906 134.148438 185.480469 132.820312 184.820312 C 130.921875 183.867188 128.824219 183.371094 126.527344 183.332031 C 124.5625 183.292969 123.476562 183.296875 123.273438 183.335938 C 115.859375 184.785156 110.699219 190.046875 109.855469 197.59375 C 109.3125 202.496094 110.683594 206.703125 113.972656 210.207031 C 114.070312 210.5625 114.210938 210.8125 114.398438 210.964844 L 114.207031 211.769531 C 111.585938 209.378906 109.773438 206.230469 109.03125 202.765625 C 108.332031 199.515625 108.601562 196.132812 109.804688 193.027344 C 111.761719 187.984375 116.007812 184.152344 121.238281 182.707031 C 126.609375 181.222656 132.375 182.4375 136.671875 185.960938 Z M 136.671875 185.960938 " fill-opacity="1" fill-rule="nonzero"/><path fill="#ff90cf" d="M 198.644531 215.011719 C 197.796875 215.019531 197.183594 214.945312 196.800781 214.785156 C 194.472656 213.816406 192.960938 213.074219 191.117188 212.691406 C 188.207031 212.085938 183.289062 212.566406 180.613281 213.972656 C 176.3125 216.234375 173.523438 219.542969 172.242188 223.894531 C 170.90625 228.449219 171.136719 236.761719 175.515625 239.816406 L 176.890625 241.28125 L 176.234375 242.226562 C 172.734375 239.164062 170.816406 235.433594 170.484375 231.035156 C 169.800781 222.105469 175.015625 213.808594 183.796875 211.621094 C 188.78125 210.375 194.429688 211.582031 198.644531 215.011719 Z M 198.644531 215.011719 " fill-opacity="1" fill-rule="nonzero"/><g clip-path="url(#62c631049c)"><path fill="#050104" d="M 144.292969 184.054688 C 144.238281 184.101562 144.203125 184.167969 144.203125 184.238281 C 144.203125 184.289062 144.222656 184.34375 144.253906 184.382812 C 146.679688 187.359375 148.25 190.6875 148.96875 194.367188 C 150.828125 203.90625 147.535156 212.375 139.84375 218.164062 C 133.167969 223.191406 124.1875 224.007812 116.570312 220.941406 C 108.410156 217.644531 102.53125 210.0625 102.097656 201.226562 C 101.859375 196.433594 102.566406 191.917969 104.898438 187.753906 C 110.140625 178.40625 120.90625 173.617188 131.417969 176.125 C 134.144531 176.777344 136.546875 177.84375 138.617188 179.335938 C 138.847656 179.5 139.15625 179.492188 139.375 179.316406 L 166.730469 157.652344 C 166.90625 157.515625 166.945312 157.265625 166.824219 157.078125 C 165.988281 155.78125 165.339844 154.222656 164.882812 152.40625 C 163.351562 146.316406 163.933594 140.609375 166.632812 135.285156 C 168.84375 130.929688 172.054688 127.53125 176.265625 125.09375 C 183.527344 120.886719 193.011719 120.683594 200.222656 125.046875 C 209.238281 130.507812 213.851562 140.121094 211.855469 150.652344 C 211.378906 153.175781 210.464844 155.519531 209.109375 157.683594 C 208.996094 157.867188 209.050781 158.109375 209.234375 158.226562 C 211.710938 159.824219 213.835938 161.925781 216.371094 164.109375 C 223.472656 170.234375 229.636719 175.511719 234.871094 179.941406 C 234.992188 180.042969 235.167969 180.054688 235.300781 179.964844 C 241.367188 175.976562 247.859375 174.449219 254.960938 176.105469 C 262.347656 177.820312 268.84375 183.453125 271.535156 190.375 C 273.082031 194.367188 273.496094 198.65625 272.773438 203.25 C 272.003906 208.144531 269.78125 212.394531 266.109375 215.996094 C 261.027344 220.980469 254.246094 223.246094 247.125 222.710938 C 237.03125 221.953125 227.878906 213.984375 226.070312 204.011719 C 224.902344 197.558594 226.027344 190.851562 230.078125 185.484375 C 230.082031 185.480469 230.085938 185.476562 230.089844 185.472656 C 230.265625 185.222656 230.207031 184.871094 229.957031 184.695312 C 229.949219 184.691406 229.945312 184.6875 229.941406 184.683594 L 229.089844 184.121094 C 229.078125 184.113281 229.070312 184.105469 229.0625 184.097656 L 205.203125 163.433594 C 205.0625 163.3125 204.84375 163.324219 204.71875 163.460938 C 201.445312 167.078125 196.09375 169.386719 191.34375 170.015625 C 191.101562 170.046875 190.921875 170.253906 190.921875 170.492188 L 190.921875 204.265625 C 190.921875 204.660156 191.21875 204.996094 191.613281 205.046875 C 197.972656 205.808594 203.765625 209.664062 207.558594 214.800781 C 213.753906 223.199219 214.011719 235.457031 207.292969 243.683594 C 201.785156 250.421875 194.628906 253.539062 185.824219 253.03125 C 178.910156 252.632812 172.820312 249.171875 168.523438 243.722656 C 165.398438 239.753906 163.835938 235.03125 163.839844 229.546875 C 163.84375 225.902344 164.371094 222.738281 165.421875 220.058594 C 167.972656 213.542969 172.503906 208.9375 179.011719 206.230469 C 180.472656 205.625 182.003906 205.246094 183.605469 205.101562 C 183.796875 205.082031 183.941406 204.921875 183.941406 204.734375 L 183.941406 170.121094 C 183.941406 170.042969 183.886719 169.980469 183.816406 169.96875 C 178.789062 169.015625 174.484375 166.792969 170.894531 163.296875 C 170.796875 163.199219 170.632812 163.191406 170.523438 163.277344 Z M 190.3125 169.617188 C 190.714844 169.296875 191.183594 169.085938 191.722656 168.984375 C 196.117188 168.152344 200.105469 166.257812 203.6875 163.308594 C 204.421875 162.699219 204.980469 162.316406 205.867188 162.808594 C 206.984375 163.429688 208.21875 164.414062 209.570312 165.761719 C 211.214844 167.398438 212.90625 168.902344 214.636719 170.269531 C 216.308594 171.585938 217.53125 172.910156 219.371094 174.464844 C 221.050781 175.878906 222.875 177.445312 224.847656 179.160156 C 226.359375 180.480469 227.511719 181.382812 228.300781 181.875 C 228.949219 182.273438 229.441406 182.652344 229.777344 183.003906 C 230.429688 183.683594 230.855469 184.144531 231.058594 184.386719 C 231.421875 184.816406 231.449219 185.441406 231.125 185.898438 C 230.636719 186.582031 229.851562 187.898438 228.777344 189.851562 C 228.097656 191.085938 227.601562 192.253906 227.296875 193.351562 C 226.6875 195.539062 226.382812 196.769531 226.382812 197.042969 C 226.386719 201.1875 226.5625 205.460938 229.035156 208.945312 C 229.128906 209.070312 229.207031 209.203125 229.269531 209.34375 C 230.128906 211.132812 231.039062 212.519531 232.003906 213.492188 C 233.714844 215.222656 234.492188 216.316406 236.34375 217.71875 C 236.875 218.117188 237.582031 218.542969 238.46875 219 C 240.71875 220.152344 242.074219 220.898438 244.183594 221.203125 C 246.519531 221.542969 248.726562 221.957031 251.195312 221.644531 C 251.292969 221.628906 252.230469 221.511719 254.003906 221.289062 C 255.109375 221.144531 256.09375 220.910156 256.964844 220.574219 C 262.496094 218.441406 267.9375 214.25 270.132812 208.6875 C 271.324219 205.679688 272.34375 202.554688 272.203125 199.347656 C 272.042969 195.75 271.222656 192.214844 269.738281 188.738281 C 268.949219 186.886719 267.78125 185.253906 266.238281 183.847656 C 265.015625 182.734375 262.953125 180.753906 261.082031 179.707031 C 259.351562 178.742188 257.507812 177.921875 255.542969 177.25 C 255.390625 177.199219 255.230469 177.171875 255.066406 177.164062 L 253.929688 177.144531 C 253.894531 177.144531 253.859375 177.136719 253.832031 177.125 C 252.609375 176.714844 251.796875 176.550781 251.390625 176.625 C 251 176.703125 250.367188 176.722656 249.492188 176.6875 C 247.648438 176.617188 245.375 176.773438 243.441406 177.398438 C 241.84375 177.914062 240.800781 178.265625 240.320312 178.449219 C 239.085938 178.914062 237.769531 179.617188 236.378906 180.558594 C 235.640625 181.058594 234.800781 181.378906 234.121094 180.828125 C 233.363281 180.214844 232.804688 180.136719 232.179688 179.601562 C 230.429688 178.109375 228.726562 176.445312 227.070312 174.605469 C 226.808594 174.316406 226.507812 174.070312 226.171875 173.871094 C 224.761719 173.042969 223.34375 171.785156 221.921875 170.097656 C 221.054688 169.074219 219.273438 168.109375 218.097656 167.113281 C 212.871094 162.671875 209.773438 160.015625 208.800781 159.148438 C 208.316406 158.71875 208.121094 158.246094 208.210938 157.730469 C 208.304688 157.226562 208.824219 155.976562 209.773438 153.976562 C 210.125 153.234375 210.558594 151.359375 211.074219 148.359375 C 211.125 148.039062 211.132812 147.714844 211.09375 147.394531 C 210.992188 146.582031 210.980469 145.640625 211.066406 144.570312 C 211.210938 142.601562 210.421875 140.761719 210.054688 138.679688 C 210.03125 138.558594 209.996094 138.441406 209.949219 138.332031 L 208.144531 134.421875 C 208.125 134.382812 208.105469 134.347656 208.074219 134.308594 C 206.347656 132 204.800781 130.175781 203.433594 128.835938 C 201.71875 127.15625 199.800781 125.890625 197.675781 125.035156 C 196.167969 124.429688 195.390625 124.121094 195.332031 124.101562 C 195.140625 124.039062 194.941406 123.992188 194.738281 123.964844 C 193.527344 123.800781 192.601562 123.578125 191.964844 123.296875 C 191.660156 123.167969 191.328125 123.109375 190.992188 123.128906 C 190.859375 123.136719 189.304688 123.09375 186.328125 123 C 185.730469 122.980469 184.675781 123.242188 183.160156 123.785156 C 182.664062 123.957031 182.273438 123.925781 181.945312 124.003906 C 181.816406 124.035156 181.691406 124.085938 181.570312 124.148438 C 180.574219 124.691406 179.695312 125.003906 178.933594 125.085938 C 178.878906 125.09375 178.824219 125.109375 178.773438 125.132812 L 176.859375 126.023438 C 176.839844 126.027344 176.824219 126.039062 176.8125 126.046875 C 174.429688 127.671875 172.699219 129.023438 171.621094 130.105469 C 170.535156 131.191406 169.449219 132.558594 168.363281 134.199219 C 167.417969 135.632812 166.6875 137.210938 166.171875 138.9375 C 165.515625 141.117188 165.09375 143.535156 164.90625 146.199219 C 164.890625 146.453125 164.902344 146.710938 164.949219 146.957031 C 165.117188 147.886719 165.222656 148.878906 165.253906 149.933594 C 165.261719 150.195312 165.292969 150.453125 165.347656 150.707031 C 165.511719 151.507812 166.140625 154.101562 167.085938 155.347656 C 167.707031 156.167969 167.925781 157.113281 167.746094 158.183594 C 167.722656 158.304688 167.664062 158.417969 167.578125 158.507812 C 166.914062 159.183594 165.917969 160.058594 164.589844 161.121094 C 164.242188 161.402344 163.980469 161.5625 163.808594 161.601562 C 163.660156 161.632812 163.523438 161.703125 163.414062 161.808594 C 162.707031 162.488281 161.890625 163.058594 160.964844 163.519531 C 160.839844 163.582031 160.726562 163.660156 160.625 163.753906 C 159.097656 165.167969 157.820312 166.242188 156.789062 166.972656 C 155.691406 167.742188 154.757812 169.046875 153.546875 169.625 C 153.441406 169.675781 153.34375 169.734375 153.257812 169.804688 C 153.066406 169.953125 151.429688 171.320312 148.347656 173.910156 C 147.246094 174.832031 146.109375 175.71875 144.941406 176.5625 C 143.808594 177.378906 142.144531 178.546875 139.945312 180.066406 C 139.796875 180.171875 139.628906 180.238281 139.449219 180.257812 C 138.476562 180.386719 137.710938 179.988281 136.753906 179.414062 C 136.390625 179.203125 135.453125 179.09375 135.25 178.902344 C 134.972656 178.640625 134.613281 178.460938 134.171875 178.367188 C 133.550781 178.238281 132.90625 177.960938 132.238281 177.542969 C 132.101562 177.453125 131.949219 177.386719 131.792969 177.34375 C 126.894531 176.007812 122.179688 176.296875 117.648438 178.210938 C 117.058594 178.460938 116.429688 178.679688 115.761719 178.871094 C 115.59375 178.921875 115.4375 178.992188 115.289062 179.082031 C 112.925781 180.5 110.679688 182.25 108.554688 184.324219 C 107.839844 185.019531 107.390625 185.546875 107.203125 185.910156 C 106.90625 186.484375 106.539062 187.085938 106.109375 187.710938 C 104.269531 190.394531 103.710938 192.914062 103.222656 196.222656 C 102.875 198.566406 102.933594 201.183594 103.40625 204.070312 C 103.710938 205.925781 104.453125 207.789062 105.632812 209.65625 C 107.136719 212.03125 108.355469 213.65625 109.289062 214.523438 C 109.636719 214.84375 110.25 215.273438 110.652344 215.714844 C 112.726562 217.960938 115.238281 219.550781 118.1875 220.480469 C 121.171875 221.421875 124.0625 221.804688 126.859375 221.625 C 129.042969 221.488281 130.550781 221.316406 131.382812 221.109375 C 132.308594 220.878906 133.625 220.386719 135.328125 219.628906 C 136.1875 219.25 136.726562 218.769531 137.503906 218.410156 C 138.121094 218.121094 138.660156 217.820312 139.121094 217.507812 C 143.007812 214.84375 145.710938 211.347656 147.230469 207.015625 C 148.765625 202.652344 148.941406 198.25 147.769531 193.800781 C 147.46875 192.660156 147.230469 191.78125 147.054688 191.160156 C 147.039062 191.105469 147.015625 191.054688 146.984375 191.007812 L 143.277344 184.789062 C 143.238281 184.722656 143.214844 184.648438 143.210938 184.570312 C 143.191406 183.707031 143.535156 183.058594 144.25 182.628906 C 145.472656 181.894531 146.5 181.191406 147.324219 180.519531 C 150.558594 177.894531 152.703125 176.140625 153.761719 175.25 C 155.402344 173.871094 156.722656 172.804688 157.722656 172.042969 C 158.757812 171.257812 160.101562 170.214844 161.75 168.917969 C 164.046875 167.109375 166 165.253906 168.351562 163.523438 C 168.40625 163.484375 168.460938 163.4375 168.507812 163.386719 C 169.46875 162.332031 170.503906 162.058594 171.613281 162.570312 C 171.757812 162.640625 171.890625 162.730469 172.003906 162.839844 C 175.1875 165.925781 178.945312 167.957031 183.269531 168.933594 C 184.292969 169.164062 184.792969 169.425781 185.046875 170.375 C 185.179688 170.886719 185.242188 171.527344 185.238281 172.292969 C 185.195312 177.402344 185.152344 183.757812 185.105469 191.363281 C 185.089844 193.253906 185.125 194.9375 185.207031 196.421875 C 185.382812 199.5 185.546875 202.328125 185.125 204.875 C 184.988281 205.699219 184.417969 206.082031 183.523438 206.160156 C 182.027344 206.285156 180.933594 206.464844 180.234375 206.707031 C 178.3125 207.367188 176.425781 208.394531 174.570312 209.785156 C 172.816406 211.097656 171.664062 212.761719 170.34375 213.96875 C 169.289062 214.925781 168.402344 216.105469 167.683594 217.507812 C 166.578125 219.652344 165.878906 221.226562 165.585938 222.226562 C 165.5 222.53125 165.230469 224.011719 164.78125 226.664062 C 164.441406 228.683594 164.859375 231.195312 164.894531 232.820312 C 164.902344 233.523438 165.035156 234.214844 165.28125 234.871094 C 166.300781 237.605469 166.980469 239.269531 167.3125 239.863281 C 168.75 242.4375 171 245.046875 174.054688 247.699219 C 175.011719 248.523438 176.15625 249.222656 177.484375 249.796875 C 179.59375 250.707031 180.84375 251.210938 181.230469 251.316406 C 190.941406 253.96875 201.308594 250.339844 207.261719 242.289062 C 208.402344 240.746094 209.171875 239.328125 209.578125 238.035156 C 209.996094 236.699219 210.371094 235.414062 210.707031 234.171875 C 211.054688 232.882812 211.222656 231.558594 211.207031 230.199219 C 211.105469 222.816406 208.3125 216.542969 202.820312 211.375 C 200.820312 209.484375 198.46875 208.347656 195.898438 207.238281 C 193.808594 206.332031 191.714844 206.546875 189.953125 205.027344 C 189.847656 204.933594 189.78125 204.796875 189.777344 204.652344 C 189.574219 198.570312 189.734375 193.039062 189.953125 189.257812 C 190.03125 187.90625 189.972656 185.195312 189.785156 181.128906 C 189.59375 177.078125 189.640625 173.484375 189.921875 170.34375 C 189.949219 170.058594 190.089844 169.796875 190.3125 169.617188 Z M 190.3125 169.617188 " fill-opacity="1" fill-rule="nonzero"/></g><path fill="#050104" d="M 181.21875 128.304688 C 184.625 127.414062 188.035156 127.214844 191.441406 127.707031 C 193.726562 128.035156 195.84375 128.824219 197.792969 130.082031 C 199.75 131.347656 201.4375 132.867188 202.855469 134.648438 C 203.761719 135.785156 204.53125 137.449219 205.191406 138.433594 C 205.613281 139.058594 205.886719 139.765625 206.015625 140.542969 C 206.261719 142.027344 206.480469 143.488281 206.667969 144.921875 C 207.03125 147.699219 206.109375 150.699219 205.273438 153.222656 C 204.976562 154.117188 204.230469 155.460938 203.042969 157.253906 C 202.445312 158.144531 201.566406 159.023438 200.402344 159.894531 C 200.21875 160.03125 199.179688 160.726562 197.289062 161.976562 C 194.5 163.824219 191.476562 164.863281 188.222656 165.09375 C 183.886719 165.394531 179.121094 163.007812 175.757812 160.320312 C 175.113281 159.804688 174.335938 158.964844 173.421875 157.792969 C 171.425781 155.25 170.324219 152.429688 170.117188 149.339844 C 170.070312 148.609375 169.992188 147.960938 169.886719 147.398438 C 169.558594 145.628906 169.777344 144.8125 170.035156 142.730469 C 170.152344 141.8125 170.367188 140.9375 170.675781 140.101562 C 171.84375 136.945312 173.558594 134.273438 175.824219 132.089844 C 176.359375 131.566406 177.957031 130.398438 180.621094 128.574219 C 180.800781 128.449219 181.003906 128.355469 181.21875 128.304688 Z M 173.480469 155.835938 C 175.851562 159.496094 179.503906 162.125 183.710938 163.207031 C 186.335938 163.882812 189.082031 163.933594 191.738281 163.355469 C 194.335938 162.792969 196.777344 161.644531 198.875 160 C 201.253906 158.132812 203.121094 155.683594 204.292969 152.886719 C 205.640625 149.691406 206.023438 146.175781 205.402344 142.777344 C 204.632812 138.554688 202.351562 134.773438 198.996094 132.144531 C 194.441406 128.570312 188.394531 127.507812 182.875 129.316406 C 181.0625 129.910156 179.351562 130.792969 177.820312 131.9375 C 173.472656 135.175781 170.828125 140.25 170.65625 145.679688 C 170.542969 149.285156 171.53125 152.828125 173.480469 155.835938 Z M 173.480469 155.835938 " fill-opacity="1" fill-rule="nonzero"/><path fill="#050104" d="M 257.726562 214.914062 C 256.648438 215.3125 255.53125 216.210938 254.136719 216.546875 C 249.898438 217.574219 245.539062 217.664062 241.601562 215.828125 C 239.132812 214.675781 236.640625 213.28125 235.03125 211.03125 C 231.3125 205.832031 230.300781 200.160156 231.988281 194.007812 C 232.859375 190.84375 234.449219 188.222656 236.757812 186.148438 C 239.570312 183.621094 243.15625 181.558594 247.210938 181.117188 C 254.40625 180.332031 260.136719 183.363281 264.488281 188.882812 C 266.472656 191.402344 267.0625 194.382812 267.46875 197.550781 C 268.289062 203.996094 264.003906 212.597656 257.726562 214.914062 Z M 238.832031 212.738281 C 240.769531 214.230469 243.015625 215.289062 245.414062 215.832031 C 250.507812 216.992188 255.890625 215.757812 260.011719 212.488281 C 262.953125 210.15625 265.0625 206.9375 266.015625 203.328125 C 267.4375 197.949219 266.152344 192.234375 262.570312 188.027344 C 261.964844 187.3125 261.292969 186.644531 260.566406 186.039062 C 258.253906 184.101562 255.460938 182.816406 252.46875 182.3125 C 249.34375 181.792969 246.128906 182.144531 243.175781 183.332031 C 238.050781 185.390625 234.1875 189.773438 232.808594 195.097656 C 231.109375 201.675781 233.480469 208.621094 238.832031 212.738281 Z M 238.832031 212.738281 " fill-opacity="1" fill-rule="nonzero"/><path fill="#050104" d="M 143.796875 198.074219 C 143.867188 203.085938 142.480469 208.242188 138.578125 211.664062 C 132.667969 216.859375 125.921875 218.640625 118.496094 216.082031 C 116.742188 215.480469 115.496094 214.46875 113.5 213.09375 C 113.285156 212.945312 113.085938 212.769531 112.914062 212.570312 C 110.746094 210.066406 109.179688 207.339844 108.222656 204.386719 C 108.148438 204.164062 108.097656 203.929688 108.070312 203.699219 C 107.792969 201.160156 107.152344 198.933594 107.851562 196.101562 C 108.171875 194.796875 108.648438 193.371094 109.28125 191.820312 C 110.710938 188.3125 113.136719 185.863281 116.199219 183.648438 C 118.832031 181.75 122.367188 181.191406 125.679688 181.054688 C 132.640625 180.777344 139.960938 185.316406 142.308594 191.960938 C 143.042969 194.035156 143.765625 195.957031 143.796875 198.074219 Z M 114.207031 211.769531 C 115.039062 212.527344 115.949219 213.199219 116.914062 213.78125 C 119.992188 215.625 123.574219 216.460938 127.160156 216.164062 C 129.476562 215.972656 131.734375 215.3125 133.789062 214.226562 C 139.21875 211.347656 142.703125 205.78125 142.902344 199.664062 C 142.941406 198.433594 142.847656 197.207031 142.621094 196 C 141.886719 192.058594 139.777344 188.5 136.671875 185.960938 C 132.375 182.4375 126.609375 181.222656 121.238281 182.707031 C 116.007812 184.152344 111.761719 187.984375 109.804688 193.027344 C 108.601562 196.132812 108.332031 199.515625 109.03125 202.765625 C 109.773438 206.230469 111.585938 209.378906 114.207031 211.769531 Z M 114.207031 211.769531 " fill-opacity="1" fill-rule="nonzero"/><path fill="#050104" d="M 205.441406 222.359375 C 206.289062 223.96875 206.390625 225.976562 206.667969 228.179688 C 206.785156 229.132812 206.761719 230.128906 206.59375 231.171875 C 206.167969 233.800781 205.222656 236.265625 203.753906 238.574219 C 202.691406 240.246094 201.355469 241.703125 199.746094 242.945312 C 196.390625 245.546875 192.453125 247.609375 188.035156 247.667969 C 179.359375 247.78125 171.976562 242.625 169.917969 234.132812 C 168.910156 229.96875 169.175781 225.945312 170.71875 222.0625 C 174.464844 212.636719 184.628906 207.3125 194.429688 211.378906 C 197.734375 212.746094 200.578125 214.988281 202.949219 218.105469 C 203.878906 219.324219 204.878906 221.292969 205.441406 222.359375 Z M 176.234375 242.226562 C 179.621094 245.09375 183.359375 246.542969 187.441406 246.574219 C 199.195312 246.660156 208.171875 235.820312 204.917969 224.335938 C 203.710938 220.609375 201.621094 217.5 198.644531 215.011719 C 194.429688 211.582031 188.785156 210.371094 183.796875 211.621094 C 175.019531 213.804688 169.800781 222.105469 170.484375 231.035156 C 170.820312 235.433594 172.734375 239.164062 176.234375 242.226562 Z M 176.234375 242.226562 " fill-opacity="1" fill-rule="nonzero"/><path fill="#d55ccb" d="M 201.425781 135.894531 C 204.363281 140.800781 205.085938 145.875 203.597656 151.125 C 202.21875 155.96875 198.59375 160.144531 193.480469 161.300781 C 190.9375 161.875 189.089844 162.125 187.9375 162.050781 C 186.628906 161.96875 185.6875 161.921875 185.117188 161.910156 C 182.855469 161.871094 181.371094 161.207031 179.566406 160.226562 C 178.648438 159.730469 178 159.117188 177.617188 158.386719 C 175.625 154.554688 174.886719 150.382812 175.410156 145.878906 C 175.863281 141.941406 178.242188 138.421875 181.253906 135.976562 C 185.535156 132.503906 192.34375 131.71875 197.503906 132.878906 C 199.179688 133.261719 199.984375 134.359375 201.167969 135.566406 C 201.269531 135.667969 201.355469 135.777344 201.425781 135.894531 Z M 201.425781 135.894531 " fill-opacity="1" fill-rule="nonzero"/><path fill="#f359c0" d="M 140.441406 205.277344 C 139.714844 207.105469 138.402344 208.785156 136.507812 210.328125 C 135.078125 211.484375 133.792969 212.292969 132.652344 212.75 C 126.359375 215.277344 120.003906 214.992188 114.398438 210.964844 C 114.210938 210.8125 114.070312 210.5625 113.972656 210.207031 C 113.609375 207.726562 113.285156 205.210938 113.003906 202.660156 C 112.746094 200.34375 112.753906 198.628906 113.03125 197.511719 C 113.855469 194.242188 115.71875 191.761719 118.175781 189.527344 C 121.464844 186.535156 125.519531 185.328125 130.34375 185.910156 C 130.566406 185.933594 131.988281 186.101562 134.609375 186.417969 C 135.347656 186.507812 136.230469 187.285156 136.480469 188.144531 C 137.066406 190.140625 139.0625 191.910156 139.789062 193.796875 C 141.394531 197.953125 141.460938 200.976562 140.441406 205.277344 Z M 140.441406 205.277344 " fill-opacity="1" fill-rule="nonzero"/><path fill="#f359c0" d="M 202.847656 221.933594 C 203.378906 223.753906 204.136719 225.921875 204.246094 227.609375 C 204.503906 231.738281 203.207031 236.246094 200.675781 239.472656 C 197.570312 243.433594 190.800781 244.820312 186.078125 244.785156 C 182.390625 244.757812 179.328125 243.589844 176.890625 241.28125 L 175.515625 239.816406 C 176.015625 238.296875 175.539062 237.496094 175.179688 236.152344 C 173.226562 228.773438 175.046875 222.671875 180.652344 217.839844 C 182.445312 216.296875 184.625 215.285156 187.1875 214.808594 C 191.453125 214.023438 196.035156 214.097656 199.164062 217.339844 C 200.183594 218.398438 201.410156 219.929688 202.847656 221.933594 Z M 202.847656 221.933594 " fill-opacity="1" fill-rule="nonzero"/><path fill="#f670e5" d="M 198.996094 132.144531 C 202.351562 134.773438 204.628906 138.554688 205.402344 142.777344 C 206.023438 146.175781 205.636719 149.691406 204.292969 152.886719 C 203.121094 155.683594 201.253906 158.132812 198.875 160 C 196.777344 161.644531 194.335938 162.792969 191.738281 163.355469 C 189.082031 163.933594 186.335938 163.882812 183.710938 163.207031 C 179.503906 162.125 175.851562 159.496094 173.480469 155.835938 C 173.722656 155.234375 173.753906 154.699219 173.574219 154.230469 C 172.878906 152.398438 172.238281 150.765625 172.019531 149.109375 C 171.367188 144.078125 172.523438 139.585938 175.492188 135.632812 C 178.910156 131.066406 184.214844 129.296875 189.742188 129.636719 C 190.597656 129.691406 191.839844 130 193.472656 130.566406 C 195.273438 131.191406 197.117188 131.714844 198.996094 132.144531 Z M 201.167969 135.566406 C 199.984375 134.359375 199.179688 133.261719 197.503906 132.878906 C 192.34375 131.71875 185.535156 132.503906 181.253906 135.976562 C 178.242188 138.421875 175.863281 141.941406 175.410156 145.878906 C 174.886719 150.382812 175.625 154.554688 177.621094 158.386719 C 178 159.117188 178.648438 159.730469 179.566406 160.226562 C 181.371094 161.207031 182.855469 161.871094 185.117188 161.910156 C 185.6875 161.921875 186.628906 161.96875 187.9375 162.050781 C 189.089844 162.125 190.9375 161.875 193.480469 161.300781 C 198.59375 160.144531 202.222656 155.96875 203.597656 151.125 C 205.085938 145.875 204.363281 140.800781 201.425781 135.894531 C 201.355469 135.777344 201.269531 135.667969 201.167969 135.566406 Z M 201.167969 135.566406 " fill-opacity="1" fill-rule="nonzero"/><path fill="#f670e5" d="M 258.976562 186.039062 C 260.59375 187.089844 261.121094 187.089844 260.566406 186.039062 C 261.292969 186.644531 261.960938 187.3125 262.570312 188.027344 C 266.152344 192.234375 267.4375 197.949219 266.015625 203.328125 C 265.0625 206.9375 262.953125 210.15625 260.011719 212.488281 C 255.890625 215.757812 250.503906 216.992188 245.410156 215.832031 C 243.011719 215.289062 240.769531 214.230469 238.828125 212.738281 C 239.054688 212.476562 239.21875 212.164062 239.320312 211.804688 C 240.792969 212.789062 242.34375 213.542969 243.976562 214.066406 C 246.527344 214.878906 249.167969 214.78125 251.984375 214.585938 C 255.382812 214.347656 258.023438 212.707031 260.320312 210.285156 C 262.613281 207.855469 263.746094 206.851562 264.410156 203.714844 C 265.371094 199.183594 264.914062 195.066406 263.046875 191.355469 C 261.882812 189.039062 261.085938 187.550781 258.78125 186.496094 C 257.808594 186.054688 256.796875 185.734375 255.75 185.542969 Z M 258.976562 186.039062 " fill-opacity="1" fill-rule="nonzero"/><path fill="#f670e5" d="M 142.621094 196 C 142.847656 197.207031 142.941406 198.433594 142.902344 199.664062 C 142.703125 205.78125 139.21875 211.347656 133.789062 214.226562 C 131.734375 215.3125 129.476562 215.972656 127.160156 216.164062 C 123.574219 216.460938 119.992188 215.625 116.914062 213.78125 C 115.949219 213.199219 115.039062 212.527344 114.207031 211.769531 L 114.398438 210.964844 C 120.003906 214.992188 126.359375 215.277344 132.652344 212.75 C 133.792969 212.292969 135.078125 211.484375 136.507812 210.328125 C 138.402344 208.785156 139.714844 207.105469 140.441406 205.277344 C 141.773438 201.523438 141.8125 197.65625 140.210938 194.003906 C 139.726562 192.902344 139.175781 191.527344 138.550781 189.875 C 138.550781 189.859375 138.5625 189.847656 138.574219 189.847656 C 138.582031 189.847656 138.585938 189.851562 138.59375 189.855469 C 139.933594 191.851562 141.011719 194.027344 141.832031 196.382812 C 141.933594 196.671875 142.085938 196.859375 142.292969 196.941406 C 142.308594 196.949219 142.328125 196.953125 142.34375 196.953125 C 142.425781 196.953125 142.488281 196.886719 142.488281 196.808594 C 142.488281 196.800781 142.488281 196.792969 142.488281 196.785156 C 142.445312 196.511719 142.488281 196.25 142.621094 196 Z M 142.621094 196 " fill-opacity="1" fill-rule="nonzero"/><path fill="#f670e5" d="M 204.917969 224.335938 C 208.171875 235.820312 199.195312 246.65625 187.441406 246.574219 C 183.359375 246.542969 179.621094 245.09375 176.234375 242.226562 L 176.890625 241.28125 C 179.328125 243.589844 182.386719 244.757812 186.074219 244.785156 C 190.800781 244.820312 197.570312 243.433594 200.675781 239.472656 C 203.203125 236.246094 204.503906 231.738281 204.242188 227.609375 C 204.136719 225.921875 203.378906 223.753906 202.847656 221.933594 L 204.441406 225.183594 C 204.445312 225.195312 204.457031 225.207031 204.464844 225.21875 C 204.523438 225.277344 204.621094 225.28125 204.679688 225.222656 C 204.691406 225.210938 204.699219 225.199219 204.707031 225.1875 C 204.8125 224.984375 204.882812 224.703125 204.917969 224.335938 Z M 204.917969 224.335938 " fill-opacity="1" fill-rule="nonzero"/><path fill="#ff82cc" d="M 258.976562 186.039062 L 255.75 185.542969 C 248.027344 184.976562 240.617188 188.320312 237.433594 195.511719 C 236.90625 196.695312 236.609375 198.019531 236.542969 199.488281 C 236.371094 203.105469 236.742188 206.699219 237.664062 210.269531 C 235.359375 208.21875 234.289062 205.425781 233.660156 202.492188 C 233.0625 199.726562 233.238281 196.992188 234.183594 194.296875 C 236.300781 188.265625 240.53125 184.644531 246.882812 183.4375 C 249.65625 182.910156 252.128906 183.042969 254.308594 183.835938 C 254.992188 184.085938 256.546875 184.820312 258.976562 186.039062 Z M 258.976562 186.039062 " fill-opacity="1" fill-rule="nonzero"/><path fill="#ff82cc" d="M 136.671875 185.960938 C 139.777344 188.5 141.886719 192.058594 142.621094 196 C 142.488281 196.25 142.445312 196.511719 142.488281 196.785156 C 142.488281 196.792969 142.488281 196.800781 142.488281 196.808594 C 142.488281 196.886719 142.425781 196.953125 142.34375 196.953125 C 142.328125 196.953125 142.308594 196.949219 142.292969 196.941406 C 142.085938 196.859375 141.933594 196.671875 141.832031 196.382812 C 141.011719 194.027344 139.933594 191.851562 138.59375 189.855469 C 138.585938 189.851562 138.582031 189.847656 138.574219 189.847656 C 138.5625 189.847656 138.550781 189.859375 138.550781 189.875 C 139.175781 191.527344 139.726562 192.902344 140.210938 194.003906 C 141.8125 197.65625 141.773438 201.523438 140.441406 205.277344 C 141.460938 200.976562 141.394531 197.953125 139.789062 193.796875 C 139.0625 191.910156 137.066406 190.144531 136.480469 188.144531 C 136.230469 187.285156 135.347656 186.507812 134.609375 186.417969 C 131.988281 186.105469 130.566406 185.933594 130.34375 185.910156 C 125.519531 185.328125 121.464844 186.535156 118.175781 189.527344 C 115.71875 191.761719 113.855469 194.242188 113.03125 197.511719 C 112.753906 198.628906 112.746094 200.34375 113.003906 202.660156 C 113.285156 205.210938 113.609375 207.726562 113.972656 210.207031 C 110.683594 206.703125 109.3125 202.496094 109.855469 197.59375 C 110.699219 190.046875 115.859375 184.785156 123.273438 183.335938 C 123.476562 183.296875 124.5625 183.292969 126.527344 183.332031 C 128.824219 183.371094 130.921875 183.867188 132.820312 184.820312 C 134.148438 185.480469 135.402344 186.378906 136.671875 185.960938 Z M 136.671875 185.960938 " fill-opacity="1" fill-rule="nonzero"/><path fill="#ff82cc" d="M 198.644531 215.011719 C 201.621094 217.5 203.710938 220.609375 204.914062 224.335938 C 204.882812 224.703125 204.8125 224.988281 204.707031 225.1875 C 204.699219 225.199219 204.691406 225.210938 204.679688 225.222656 C 204.617188 225.28125 204.523438 225.28125 204.464844 225.222656 C 204.453125 225.210938 204.445312 225.195312 204.4375 225.183594 L 202.847656 221.9375 C 201.410156 219.929688 200.183594 218.398438 199.164062 217.339844 C 196.035156 214.097656 191.453125 214.023438 187.1875 214.8125 C 184.621094 215.285156 182.445312 216.296875 180.652344 217.839844 C 175.046875 222.671875 173.222656 228.773438 175.179688 236.152344 C 175.535156 237.496094 176.015625 238.296875 175.515625 239.816406 C 171.136719 236.761719 170.90625 228.449219 172.242188 223.894531 C 173.519531 219.542969 176.3125 216.234375 180.613281 213.972656 C 183.289062 212.566406 188.207031 212.085938 191.117188 212.691406 C 192.960938 213.074219 194.472656 213.816406 196.800781 214.785156 C 197.183594 214.945312 197.796875 215.019531 198.644531 215.011719 Z M 198.644531 215.011719 " fill-opacity="1" fill-rule="nonzero"/></svg>